<svg width="68" height="45" viewBox="0 0 68 45" fill="none" xmlns="http://www.w3.org/2000/svg">
<path d="M64.9996 25.0999C66.6564 25.1002 67.9998 23.7573 68.0001 22.1004C68.0004 20.4436 66.6575 19.1002 65.0007 19.0999L65.0001 22.0999L64.9996 25.0999ZM0.879071 19.9666C-0.292716 21.138 -0.293069 23.0375 0.878284 24.2093L19.9666 43.3047C21.138 44.4765 23.0375 44.4769 24.2093 43.3055C25.3811 42.1341 25.3814 40.2346 24.2101 39.0629L7.24264 22.0891L24.2163 5.12173C25.3881 3.95037 25.3885 2.05088 24.2171 0.87909C23.0458 -0.292701 21.1463 -0.293053 19.9745 0.878303L0.879071 19.9666ZM65.0001 22.0999L65.0007 19.0999L3.00056 19.0884L3 22.0884L2.99944 25.0884L64.9996 25.0999L65.0001 22.0999Z" fill="black"/>
</svg>
